<svg width="49" height="49" viewBox="0 0 49 49" fill="none" xmlns="http://www.w3.org/2000/svg">
<rect width="49" height="49" rx="24.5" fill="#3F98B3"/>
<path d="M22.384 38.63C21.32 38.63 20.27 38.42 19.234 38C18.198 37.58 17.358 36.922 16.714 36.026L18.73 31.574L18.856 31.196L19.234 31.406C19.318 31.602 19.388 31.84 19.444 32.12C19.5 32.372 19.682 32.68 19.99 33.044C20.27 33.268 20.564 33.436 20.872 33.548C21.208 33.632 21.544 33.674 21.88 33.674C22.328 33.674 22.706 33.506 23.014 33.17C23.35 32.806 23.602 32.26 23.77 31.532C23.966 30.776 24.064 29.838 24.064 28.718V16.244H20.242V11.834H31.918V16.244H29.062V29.054C29.062 30.734 28.88 32.176 28.516 33.38C28.18 34.584 27.704 35.578 27.088 36.362C26.5 37.118 25.8 37.678 24.988 38.042C24.176 38.434 23.308 38.63 22.384 38.63Z" fill="#FBF0E6"/>
</svg>
